HIERARCHY
ROOT SpineBase
{
  OFFSET 0.000000 0.000000 0.000000
  CHANNELS 6 Xposition Yposition Zposition Zrotation Xrotation Yrotation
  JOINT SpineMid
  {
    OFFSET -0.000000 31.914878 0.000000
    CHANNELS 3 Zrotation Xrotation Yrotation
    JOINT SpineShoulder
    {
      OFFSET -0.042973 24.049483 -0.649288
      CHANNELS 3 Zrotation Xrotation Yrotation
      JOINT Neck
      {
        OFFSET -0.024741 8.042509 -0.492243
        CHANNELS 3 Zrotation Xrotation Yrotation
        JOINT Head
        {
          OFFSET -0.214283 11.043233 3.186597
          CHANNELS 3 Zrotation Xrotation Yrotation
          End Site
          {
            OFFSET 0 0 0
          }
        }
      }
      JOINT ShoulderLeft
      {
        OFFSET -14.386168 -6.197892 -0.163750
        CHANNELS 3 Zrotation Xrotation Yrotation
        JOINT ElbowLeft
        {
          OFFSET -2.504043 -21.789049 6.120395
          CHANNELS 3 Zrotation Xrotation Yrotation
          JOINT WristLeft
          {
            OFFSET 1.193272 -19.593684 4.812505
            CHANNELS 3 Zrotation Xrotation Yrotation
            JOINT HandLeft
            {
              OFFSET -0.686566 -3.641971 -0.751428
              CHANNELS 3 Zrotation Xrotation Yrotation
              JOINT HandTipLeft
              {
                OFFSET 0.348124 -5.041770 -6.010029
                CHANNELS 3 Zrotation Xrotation Yrotation
                End Site
                {
                  OFFSET 0 0 0
                }
              }
              JOINT ThumbLeft
              {
                OFFSET 0.072908 -0.196852 -4.854385
                CHANNELS 3 Zrotation Xrotation Yrotation
                End Site
                {
                  OFFSET 0 0 0
                }
              }
            }
          }
        }
      }
      JOINT ShoulderRight
      {
        OFFSET 11.589477 -4.216985 -11.051003
        CHANNELS 3 Zrotation Xrotation Yrotation
        JOINT ElbowRight
        {
          OFFSET 6.327169 -22.292001 -3.763288
          CHANNELS 3 Zrotation Xrotation Yrotation
          JOINT WristRight
          {
            OFFSET 2.114893 -19.940626 4.808523
            CHANNELS 3 Zrotation Xrotation Yrotation
            JOINT HandRight
            {
              OFFSET -0.455242 -7.060212 2.639453
              CHANNELS 3 Zrotation Xrotation Yrotation
              JOINT HandTipRight
              {
                OFFSET 1.213755 -6.960341 0.654181
                CHANNELS 3 Zrotation Xrotation Yrotation
                End Site
                {
                  OFFSET 0 0 0
                }
              }
              JOINT ThumbRight
              {
                OFFSET 3.680670 -2.657884 -1.795034
                CHANNELS 3 Zrotation Xrotation Yrotation
                End Site
                {
                  OFFSET 0 0 0
                }
              }
            }
          }
        }
      }
    }
  }
  JOINT HipLeft
  {
    OFFSET -4.950311 1.468496 -0.977934
    CHANNELS 3 Zrotation Xrotation Yrotation
    JOINT KneeLeft
    {
      OFFSET -3.538535 -30.650907 1.164472
      CHANNELS 3 Zrotation Xrotation Yrotation
      JOINT AnkleLeft
      {
        OFFSET -1.582356 -34.946456 0.294892
        CHANNELS 3 Zrotation Xrotation Yrotation
        JOINT FootLeft
        {
          OFFSET -0.776135 -3.099459 -5.898857
          CHANNELS 3 Zrotation Xrotation Yrotation
          End Site
          {
            OFFSET 0 0 0
          }
        }
      }
    }
  }
  JOINT HipRight
  {
    OFFSET 5.013907 2.408334 -4.431422
    CHANNELS 3 Zrotation Xrotation Yrotation
    JOINT KneeRight
    {
      OFFSET 6.349965 -30.796401 -6.566787
      CHANNELS 3 Zrotation Xrotation Yrotation
      JOINT AnkleRight
      {
        OFFSET -1.080770 -33.756801 -1.238472
        CHANNELS 3 Zrotation Xrotation Yrotation
        JOINT FootRight
        {
          OFFSET -4.536656 -0.145393 -13.428701
          CHANNELS 3 Zrotation Xrotation Yrotation
          End Site
          {
            OFFSET 0 0 0
          }
        }
      }
    }
  }
}
MOTION
Frames: 16
Frame Time: 0.033333
1.316310 68.493508 267.584361 -0.000000 0.000000 19.115757 -0.000000 0.000000 -19.115757 -0.000000 0.000000 0.000000 -0.000000 0.000000 0.000000 0.000000 0.000000 0.000000 -0.000000 0.000000 0.000000 -0.000000 0.000000 0.000000 -0.000000 0.000000 0.000000 -0.000000 0.000000 0.000000 0.000000 0.000000 0.000000 0.000000 0.000000 0.000000 -0.000000 0.000000 0.000000 -0.000000 0.000000 0.000000 -0.000000 0.000000 0.000000 -0.000000 0.000000 0.000000 0.000000 0.000000 0.000000 0.000000 0.000000 0.000000 -0.000000 0.000000 -19.115757 -0.000000 0.000000 0.000000 -0.000000 0.000000 0.000000 0.000000 0.000000 0.000000 -0.000000 0.000000 -19.115757 -0.000000 0.000000 0.000000 -0.000000 0.000000 0.000000 0.000000 0.000000 0.000000
1.284337 68.631142 267.696765 -0.018264 0.005912 21.331928 0.014862 -0.012151 -21.331925 -0.000000 0.000000 0.000000 0.081989 0.873225 -0.007323 0.000000 0.000000 0.000000 -0.000000 0.000000 0.000000 -0.000000 0.000000 0.000000 2.015219 5.932554 -1.627528 -2.218880 -8.525403 1.717262 0.000000 0.000000 0.000000 0.000000 0.000000 0.000000 0.004751 -0.818742 -0.233435 0.894998 1.640143 0.519669 2.838244 0.930692 0.979060 -7.776512 -0.685140 -1.656083 0.000000 0.000000 0.000000 0.000000 0.000000 0.000000 0.014862 -0.012151 -21.331925 -0.000000 0.000000 0.000000 -2.592626 6.554879 3.085771 0.000000 0.000000 0.000000 0.014862 -0.012151 -21.331925 -0.305939 1.249607 -0.025436 3.183956 -9.933259 -0.990372 0.000000 0.000000 0.000000
1.253906 68.745914 267.793041 -0.034016 0.018246 23.142502 0.024108 -0.030147 -23.142490 -0.000000 0.000000 0.000000 0.187118 1.643001 -0.024691 0.000000 0.000000 0.000000 -0.000000 0.000000 0.000000 -0.000000 0.000000 0.000000 4.335851 9.097258 -2.930871 -4.724135 -15.074187 2.953687 0.000000 0.000000 0.000000 0.000000 0.000000 0.000000 0.024543 -1.496925 -0.429641 1.654851 3.057864 0.938571 5.102270 1.712553 1.751423 -14.527836 -0.899831 -3.225865 0.000000 0.000000 0.000000 0.000000 0.000000 0.000000 0.782422 0.965783 -23.277292 -0.303119 -1.214494 0.125397 -4.525597 10.794643 5.320371 0.000000 0.000000 0.000000 0.024108 -0.030147 -23.142490 -0.577399 2.359032 -0.042427 7.906210 -24.426725 -1.513696 0.000000 0.000000 0.000000
1.225017 68.837823 267.873190 -0.047213 0.037028 24.565593 0.027546 -0.053304 -24.565565 -0.000000 0.000000 0.000000 0.315422 2.310652 -0.052230 0.000000 0.000000 0.000000 -0.000000 0.000000 0.000000 -0.000000 0.000000 0.000000 6.648351 9.158650 -3.615220 -7.611606 -19.522946 3.885788 0.000000 0.000000 0.000000 0.000000 0.000000 0.000000 0.060812 -2.033554 -0.588102 2.292424 4.254697 1.272425 6.805372 2.318560 2.330061 -20.044749 -0.805031 -4.572373 0.000000 0.000000 0.000000 0.000000 0.000000 0.000000 1.074515 1.265680 -24.750221 -0.398836 -1.636052 0.167883 -5.948987 13.613443 6.940401 0.000000 0.000000 0.000000 0.027546 -0.053304 -24.565565 -0.811241 3.314259 -0.052839 15.788387 -44.331270 0.279468 0.000000 0.000000 0.000000
1.197669 68.906870 267.937210 -0.057818 0.062260 25.617739 0.025215 -0.081139 -25.617690 -0.000000 0.000000 0.000000 0.466931 2.877462 -0.089959 0.000000 0.000000 0.000000 -0.447208 -0.807773 -0.035851 0.446747 0.808028 0.029548 8.719055 6.240637 -3.466055 -10.891500 -22.307564 4.921715 0.000000 0.000000 0.000000 0.000000 0.000000 0.000000 0.114697 -2.427975 -0.708495 2.817622 5.232585 1.533812 7.979344 2.738595 2.731794 -24.162313 -0.581579 -5.614342 0.000000 0.000000 0.000000 0.000000 0.000000 0.000000 1.284466 1.465710 -25.839315 -0.459571 -1.940876 0.198624 -6.981734 15.509756 8.106246 0.000000 0.000000 0.000000 0.025215 -0.081139 -25.617690 -1.004724 4.103511 -0.058485 32.583298 -65.506168 11.272026 0.000000 0.000000 0.000000
1.171863 68.953054 267.985103 -0.065804 0.093928 26.312386 0.017352 -0.113365 -26.312315 -0.000000 0.000000 0.000000 0.641667 3.344615 -0.137800 0.000000 0.000000 0.000000 -0.578067 -1.019320 -0.050219 0.577265 1.019775 0.039939 10.455544 0.849539 -2.439103 -14.498094 -24.361676 6.755185 0.000000 0.000000 0.000000 0.000000 0.000000 0.000000 0.187036 -2.679773 -0.790686 3.237899 5.993540 1.732650 8.661726 2.973311 2.972078 -26.756636 -0.396018 -6.314869 0.000000 0.000000 0.000000 0.000000 0.000000 0.000000 1.405271 1.576919 -26.557498 -0.486291 -2.132266 0.218404 -7.706797 16.765061 8.922454 0.000000 0.000000 0.000000 -0.103719 -0.946589 -26.534348 -1.439341 5.512269 0.178911 81.217157 -77.914906 55.581796 0.000000 0.000000 0.000000
1.151088 68.945837 268.017039 -0.064539 0.108896 26.404152 0.009381 -0.126237 -26.404080 -0.000000 0.000000 0.000000 0.817580 3.794614 -0.187530 0.000000 0.000000 0.000000 -0.759715 -1.327913 -0.069314 0.189700 0.765364 -0.111786 13.017893 -11.130460 1.008097 -18.080152 2.114083 9.337122 0.000000 0.000000 0.000000 0.000000 0.000000 0.000000 0.443166 -2.819803 -0.867052 3.541521 6.810515 1.957710 8.582919 2.540418 3.023187 -27.233789 -0.354941 -6.525113 0.000000 0.000000 0.000000 0.000000 0.000000 0.000000 1.542268 1.425745 -26.635032 -0.675060 -2.074232 0.201345 -9.264733 19.269169 10.670538 0.000000 0.000000 0.000000 0.009381 -0.126237 -26.404080 -1.302289 5.094521 -0.057383 147.369446 -72.416637 117.857769 0.000000 0.000000 0.000000
1.132775 68.939912 268.022173 -0.060887 0.160023 26.286729 -0.016277 -0.170440 -26.286668 -0.000000 0.000000 0.000000 1.026945 4.004357 -0.251924 0.000000 0.000000 0.000000 -0.929514 -1.590340 -0.090786 0.299857 0.947180 -0.114378 14.178659 -18.388955 3.325862 -22.924417 23.954786 15.164894 0.000000 0.000000 0.000000 0.000000 0.000000 0.000000 0.553786 -2.809216 -0.879832 3.837486 7.317929 2.078175 8.127596 2.518959 2.845138 -27.754234 -1.252164 -6.878627 0.000000 0.000000 0.000000 0.000000 0.000000 0.000000 1.384240 1.396673 -26.514426 -0.554117 -2.027321 0.202965 -8.074953 17.318574 9.352192 0.000000 0.000000 0.000000 -0.016277 -0.170440 -26.286668 -1.351482 5.345343 -0.058464 160.635764 -65.809935 129.409708 0.000000 0.000000 0.000000
1.116816 68.923568 268.011247 -0.061996 0.234839 25.889001 -0.046763 -0.238340 -25.888972 -0.000000 0.000000 0.000000 1.326098 4.124571 -0.346676 0.000000 0.000000 0.000000 -1.077255 -1.770205 -0.115170 0.414751 1.079519 -0.105755 15.560065 -25.227971 5.765109 -46.930655 -9.111325 68.225513 0.000000 0.000000 0.000000 0.000000 0.000000 0.000000 0.578948 -2.641450 -0.836290 4.107954 7.345057 2.105297 7.670474 2.428058 2.690051 -27.218941 0.243173 -6.294518 0.000000 0.000000 0.000000 0.000000 0.000000 0.000000 1.150402 1.266279 -26.100602 -0.413462 -1.877764 0.194115 -8.108667 17.323785 9.403210 0.000000 0.000000 0.000000 -0.046763 -0.238340 -25.888972 -1.356968 5.516362 -0.061455 166.497704 -59.954519 134.209619 0.000000 0.000000 0.000000
1.087710 68.958205 268.003183 -0.106741 0.267561 26.095347 -0.021830 -0.287238 -26.095153 -0.000000 0.000000 0.000000 1.859939 4.449690 -0.516667 0.000000 0.000000 0.000000 -1.157151 -1.862296 -0.129078 0.491736 1.155476 -0.096741 15.909947 -26.890544 6.407057 -22.514662 -47.518218 82.231736 0.000000 0.000000 0.000000 0.000000 0.000000 0.000000 0.446038 -2.458096 -0.765437 4.052140 6.770698 1.982473 7.195501 3.221599 2.376484 -22.457540 -1.851104 -5.820017 0.000000 0.000000 0.000000 0.000000 0.000000 0.000000 0.970272 1.330414 -26.315656 -0.172376 -1.889766 0.208627 -8.138867 17.317761 9.451696 0.000000 0.000000 0.000000 -0.021830 -0.287238 -26.095153 -1.142363 5.238851 -0.073522 147.996453 -70.725423 119.254906 0.000000 0.000000 0.000000
1.047933 69.005325 267.990177 -0.141224 0.323424 26.318328 -0.016806 -0.352512 -26.317981 -0.000000 0.000000 0.000000 1.933630 4.726322 -0.539454 0.000000 0.000000 0.000000 -1.284657 -2.054246 -0.146867 0.583822 1.289416 -0.096547 15.560805 -25.635961 5.937678 -26.418482 -29.119339 38.469081 0.000000 0.000000 0.000000 0.000000 0.000000 0.000000 0.101159 -2.328107 -0.678051 4.242683 6.490789 1.852014 6.155105 4.518687 1.751368 -20.682107 -2.798916 -5.332601 0.000000 0.000000 0.000000 0.000000 0.000000 0.000000 0.878812 1.267424 -26.535557 -0.077718 -1.849373 0.209170 -8.140780 17.337157 9.449595 0.000000 0.000000 0.000000 -0.244970 -1.197672 -26.534703 -1.189170 6.086903 0.145527 126.596037 -75.240522 100.115344 0.000000 0.000000 0.000000
1.025727 69.108275 267.954387 -0.108229 0.436147 27.051339 -0.101967 -0.437654 -27.051317 -0.000000 0.000000 0.000000 2.360001 5.148678 -0.678163 0.000000 0.000000 0.000000 -1.370349 -2.070795 -0.170601 0.590094 1.267847 -0.095700 15.407719 -26.410444 6.247792 -25.157951 -30.778275 37.669833 0.000000 0.000000 0.000000 0.000000 0.000000 0.000000 -0.209747 -2.141543 -0.578540 4.285185 6.254756 1.704184 5.289298 5.579351 1.233107 -20.106155 -5.052805 -5.431927 0.000000 0.000000 0.000000 0.000000 0.000000 0.000000 0.697485 1.230932 -27.272305 0.053904 -1.849411 0.216323 -8.181638 17.352585 9.509004 0.000000 0.000000 0.000000 -0.642433 -1.521606 -27.313368 -0.806060 6.418627 0.166812 100.037712 -76.788895 75.615833 0.000000 0.000000 0.000000
0.936602 69.055310 267.973600 -0.095907 0.545823 26.579076 -0.158451 -0.531051 -26.579354 -0.000000 0.000000 0.000000 2.783128 5.429639 -0.818213 0.000000 0.000000 0.000000 -1.370001 -1.875977 -0.190525 0.470830 1.063155 -0.100583 15.501484 -27.694123 6.763997 -26.201946 -23.540120 36.574969 0.000000 0.000000 0.000000 0.000000 0.000000 0.000000 -0.406760 -1.722040 -0.427764 4.205820 5.710974 1.518610 4.335256 5.712478 0.844626 -20.844721 -7.334364 -5.940228 0.000000 0.000000 0.000000 0.000000 0.000000 0.000000 0.611229 1.092883 -26.792136 0.044873 -1.796524 0.209712 -8.236828 17.358250 9.593193 0.000000 0.000000 0.000000 -0.607350 -1.524750 -26.821748 -0.619686 6.270894 0.125839 80.505969 -76.249854 57.472701 0.000000 0.000000 0.000000
0.796794 68.988354 268.005179 -0.097449 0.716621 26.312698 -0.230313 -0.685565 -26.313467 -0.000000 0.000000 0.000000 3.286709 5.297119 -0.984175 0.000000 0.000000 0.000000 -1.537680 -1.662397 -0.261730 0.604671 0.924950 -0.034822 16.477073 -26.038274 6.170415 -27.042638 -25.422040 36.495942 0.000000 0.000000 0.000000 0.000000 0.000000 0.000000 -0.477530 -1.338219 -0.305770 4.180793 5.394881 1.409287 2.665403 5.965698 0.167853 -21.150447 -8.647375 -6.003527 0.000000 0.000000 0.000000 0.000000 0.000000 0.000000 0.554379 0.896558 -26.518849 0.004220 -1.766012 0.204002 -8.297212 17.379817 9.681229 0.000000 0.000000 0.000000 -0.546519 -1.682393 -26.567354 -0.556652 6.250281 0.120465 73.782645 -75.703327 51.379827 0.000000 0.000000 0.000000
0.633499 68.915602 268.047182 -0.079946 0.934847 26.158277 0.129727 0.059729 -26.154736 -0.004065 0.011125 0.001446 3.523758 3.778581 -1.000409 0.000000 0.000000 0.000000 -1.711362 -2.396233 -0.378043 0.730184 0.699505 0.043065 15.141968 -26.843153 6.421419 -26.084159 -23.812193 35.782462 0.000000 0.000000 0.000000 0.000000 0.000000 0.000000 -0.380328 -2.024744 -0.225889 3.899330 5.335792 1.337720 1.814074 5.670999 -0.178947 -19.133082 -6.890184 -4.724210 0.000000 0.000000 0.000000 0.000000 0.000000 0.000000 0.552092 0.535473 -26.342417 -0.174265 -1.659426 0.182311 -8.386004 17.397894 9.814186 0.000000 0.000000 0.000000 -0.504832 -1.906889 -26.436226 -0.545632 6.310238 0.127237 79.372973 -76.000901 56.988989 0.000000 0.000000 0.000000
0.457135 68.826096 268.096503 -0.005193 1.175821 25.991852 0.187429 0.052710 -25.984268 0.017325 0.031655 0.007798 3.244329 2.790639 -0.950624 0.000000 0.000000 0.000000 -1.796300 -2.192711 -0.426120 0.737915 0.372965 0.107484 13.868839 -27.595197 6.596162 -25.060649 -23.300671 35.208073 0.000000 0.000000 0.000000 0.000000 0.000000 0.000000 -0.157865 -1.336953 -0.015606 3.407779 4.730991 1.191305 1.244299 5.027534 -0.393162 -18.838090 -5.735877 -4.170505 0.000000 0.000000 0.000000 0.000000 0.000000 0.000000 0.573475 0.082317 -26.142718 -0.470290 -1.502372 0.149275 -8.510463 17.395533 10.007753 0.000000 0.000000 0.000000 -0.461473 -2.133562 -26.299927 -0.705268 6.372103 0.152824 97.381253 -76.706840 73.838361 0.000000 0.000000 0.000000
